<svg xmlns="http://www.w3.org/2000/svg" xmlns:svg="http://www.w3.org/2000/svg" xml:space="preserve" width="480.119" height="145.236"><defs><clipPath><path d="M0 841.945h594.96V.055H0v841.89z"/></clipPath><clipPath id="a" clipPathUnits="userSpaceOnUse"><path d="M541.28 263.646H157.185V147.457H541.28v116.189z"/></clipPath></defs><g transform="matrix(1.25 0 0 -1.25 -140.24 409.901)"><g transform="translate(-44.992 64.275)"><g clip-path="url(#a)"><g transform="translate(327.256 177.318)"><path fill="#00a650" fill-opacity="1" fill-rule="nonzero" stroke="none" d="M0 0c-1.918-.895-4.009-1.674-6.517-1.674-2.515 0-4.067 1.67-4.067 4.204 0 3.224 3.106 4.988 6.872 5.581L0 8.771V0zm8.486-2.45L8.071 9.505v7.717c0 8.187-6.879 9.264-11.783 9.264-5.137 0-10.286-2.691-12.731-4.425l.898-2.331c3.108.839 6.037 1.251 8.19 1.251C-2.453 20.981 0 19.434 0 15.37v-3.906l-5.268-.598c-6.451-.776-13.51-2.803-13.51-10.667 0-4.186 3.114-7.609 8.132-7.609 5.198 0 8.609 2.988 10.758 5.621C.352-5.26 1.494-7.35 5.86-7.35c2.328 0 5.976 1.554 7.828 3.285l-.236 1.615H8.486zm152.278 21.763c0 2.329 1.795 3.827 5.016 3.827 5.871 0 7.163-3.231 7.999-6.877l1.976-.177 1.016 7.95c-3.523 1.796-6.538 2.507-10.391 2.507-6.691 0-12.61-4.001-12.61-10.223 0-11.177 16.872-10.398 16.872-15.96 0-2.748-2.288-4.305-5.581-4.305-4.638 0-7.673 3.228-8.453 7.891l-2.328.059-.537-8.848c3.581-1.61 6.989-2.563 11.203-2.563 6.159 0 13.647 2.92 13.647 10.754 0 10.343-17.829 9.565-17.829 15.965zm-21.113 14.229a4.806 4.806 0 0 1 4.808 4.813 4.806 4.806 0 0 1-4.808 4.813 4.82 4.82 0 0 1-4.82-4.813 4.819 4.819 0 0 1 4.82-4.813zm52.673-20.746c.176 7.054 3.051 10.283 6.877 10.283 4.415 0 6.095-4.242 6.095-10.283h-12.972zm21.7-1.795c0 8.49-4.065 15.602-13.453 15.602-9.927 0-16.698-8.649-16.698-18.097 0-9.719 5.94-15.916 16.759-15.916 5.565 0 10.402 2.327 12.972 5.379l-.892 2.029c-3.588-.834-6.876-1.229-9.096-1.229-6.276 0-10.696 2.667-11.233 10.798h21.641v1.434zM143.953-1.55l-.118 10.998v14.347c0 2.094-.957 2.629-2.811 2.629-2.868 0-7.593-.596-10.825-1.315v-2.748h5.502V9.448l-.176-10.581c0-1.317-.538-2.332-1.613-2.693l-3.649-1.136c0-.776.119-1.136.237-1.912h18.534c.3.776.361 1.493.361 2.093l-4.426 1.074c-.657.178-1.016.6-1.016 2.157zm-33.067-2.038c-6.459 0-8.125 6.579-8.125 13.634 0 6.453 1.61 12.734 7.229 12.734 6.348 0 7.714-6.339 7.714-13.872 0-6.215-1.07-12.496-6.818-12.496zm-.415 30.074c-9.149 0-16.385-8.847-16.385-17.578 0-11.358 5.983-16.318 15.847-16.318 9.445 0 16.561 8.846 16.561 17.515 0 11.178-5.384 16.381-16.023 16.381zM78.459 9.867 78.28-.238c-1.49-.483-3.346-1.253-5.501-1.253-4.539 0-7.708 3.405-7.708 10.937 0 8.79 2.272 13.034 8.426 13.034 2.335 0 3.713-.543 4.962-.957V9.867zM86.835-2.45l-.242 12.255V41.79c0 2.392-.842 2.991-3.107 2.991-2.812 0-7.297-.599-10.526-1.261v-2.809h5.499V25.708c-1.434.241-2.868.417-5.142.417-9.384 0-16.863-6.929-16.863-17.932 0-12.555 6.461-15.603 12.917-15.603 4.065 0 6.997 2.329 9.027 4.6 0-2.209.781-4.6 3.821-4.6 4.426 0 7.419 1.495 9.993 2.924l-.418 2.036h-4.959zm-38.473 0-.304 11.836v13.69c0 2.335-1.495 3.348-3.822 3.348-2.869 0-6.343-.773-9.267-1.609v-2.393h4.96V9.448L39.748.477c-1.855-.834-4.296-1.97-7.778-1.97-3.981 0-4.535 2.898-4.597 6.367v18.262c0 2.275-1.316 3.288-3.765 3.288-2.81 0-6.22-.716-9.508-1.609v-2.393h5.085V3.652c0-5.617.653-11.062 9.507-11.062 4.662 0 8.07 2.624 11.12 5.617.062-3.467 1.731-5.496 4.903-5.496 3.943 0 6.812 1.846 8.967 3.167l-.181 1.672h-5.139zm-78.671 26.186 2.724-.899c.776-.3 1.252-.898 1.252-1.911 0-.538-.116-1.134-.355-1.854L-34.404-.536l-8.372 26.304h-11.778c-.238-.717-.095-1.77.049-2.33 2.804-.966 3.725-.735 4.717-3.339l10.126-28.583 5.977 1.731 10.407 24.87c1.075 2.745 2.21 5.019 3.224 6.157.066.238.066 1.256.066 1.494h-10.257c-.176-.717-.176-1.256-.064-2.032zM-83.078 12.11c-3.731-5.562-8.461-8.149-12.5-8.147-.262 0-.522.011-.785.033-9.904.79-17.172 14.007-20.014 19.166 1.874 4.556 5.021 11.978 9.346 18.522 4.376 6.636 9.961 12.329 16.542 13.318a10.8 10.8 0 0 0 1.657.128c3.839-.002 6.86-2.129 8.961-5.364 2.098-3.233 3.235-7.561 3.235-11.819 0-11.764-2.719-20.279-6.442-25.837zm-44.526-6.517c-1.73-3.396-6.082-10.332-12.806-11.801a11.62 11.62 0 0 0-2.505-.263c-6.036.005-13.533 4.197-15.129 12.873a18.17 18.17 0 0 0-.297 3.293c.008 6.261 3.182 12.738 10.648 15.122 1.222.389 2.416.574 3.582.574 7.128.026 13.422-7.066 17.319-18.087a25.74 25.74 0 0 0-.812-1.711zm52.913 77.074c-1.572 2.364-3.655 3.668-6.05 3.661-3.637-.013-7.796-2.889-12.206-8.859-7.449-10.113-15.674-29.237-25.059-51.507-3.71 6.397-12.363 15.692-24.708 15.705-3.048 0-6.303-.568-9.748-1.886-13.195-5.045-17.613-17.239-17.609-25.444 0-13.953 10.568-25.501 23.276-25.756.137-.005.273-.005.408-.005 7.561 0 12.906 4.131 16.324 8.22a32.901 32.901 0 0 1 4.609 7.319c5.128-12.46 10.556-22.552 14.356-27.331 3.425-4.292 7.099-6.641 10.731-6.645h.005c3.436 0 6.706 2.139 9.483 6.451 7.53 11.66 12.734 29.265 16.496 46.172 2.217 10.001 3.721 24.016 3.721 36.309 0 4.862-.236 9.453-.757 13.42-.582 4.391-1.695 7.812-3.272 10.176"/></g></g></g></g></svg>